<svg width="44" height="46" viewBox="0 0 44 46" fill="none" xmlns="http://www.w3.org/2000/svg">
<path d="M28.3103 16.8469L27.5135 35.3079M16.4865 35.3079L15.6897 16.8469M38.6463 10.2624C39.4339 10.3691 40.217 10.4819 41 10.6029M38.6463 10.2645L36.1867 38.7396C36.0863 39.899 35.4982 40.9819 34.54 41.7718C33.5819 42.5617 32.3243 43.0003 31.0187 43H12.9813C11.6757 43.0003 10.4181 42.5617 9.45995 41.7718C8.50179 40.9819 7.91372 39.899 7.81333 38.7396L5.3537 10.2624M38.6463 10.2624C35.9883 9.90451 33.3166 9.63288 30.6364 9.44808M3 10.6009C3.78303 10.4798 4.56606 10.367 5.3537 10.2624M5.3537 10.2624C8.0117 9.90451 10.6834 9.63289 13.3636 9.44808M30.6364 9.44808V7.56915C30.6364 5.1487 28.5406 3.1303 25.823 3.0544C23.275 2.98187 20.725 2.98187 18.177 3.0544C15.4594 3.1303 13.3636 5.15076 13.3636 7.56915V9.44808M30.6364 9.44808C24.8874 9.05235 19.1126 9.05235 13.3636 9.44808" stroke="#F4B2B6" stroke-width="5" stroke-linecap="round" stroke-linejoin="round"/>
</svg>
